<svg xmlns="http://www.w3.org/2000/svg" viewBox="0 0 160.35 160.35">
  <path
    d="M.83,68.4c-.53,3.86-.83,7.8-.83,11.74,0,19.24,6.74,36.89,18.1,50.75l9.47-10.68c-8.48-11.06-13.48-25-13.48-40.07,0-4.01,.38-7.88,1.06-11.74,.68-4.17,1.89-8.26,3.41-12.12,3.56-9.24,9.09-17.42,16.13-24.09,11.89-11.21,27.87-18.1,45.45-18.1,12.57,0,24.31,3.48,34.24,9.54l-9.54,10.68c-7.35-3.94-15.75-6.14-24.69-6.14-13.94,0-26.66,5.53-36.05,14.47-7.12,6.89-12.27,15.75-14.62,25.75h37.8l3.48,3.86,9.39,10.53h0l12.95-14.39,23.1-25.75,9.47-10.45,9.39-10.45c-3.48-3.26-7.12-6.14-11.13-8.71C111.34,4.77,96.34,0,80.14,0,58.93,0,39.61,8.26,25.3,21.74c-6.97,6.59-12.8,14.39-17.12,23.03-3.56,7.35-6.06,15.3-7.35,23.63H.83Zm36.51,62.11l-9.47,10.45c7.27,6.21,15.68,11.21,24.77,14.54,4.92,1.74,10.07,3.11,15.38,3.94,4.01,.61,8.03,.91,12.12,.91,9.7,0,18.94-1.74,27.49-4.85,9.16-3.33,17.57-8.33,24.77-14.54,17.12-14.69,27.95-36.51,27.95-60.82,0-3.94-.3-7.88-.91-11.74-.38-2.95-.98-5.91-1.74-8.71-1.36-5.23-3.26-10.15-5.6-14.92l-10.3,11.51-10.91,12.12v.08l-31.81,35.37-18.94,21.06-18.86-21.06-9.47-10.53-22.34-24.84c-.83,3.71-1.29,7.65-1.29,11.66,0,10.91,3.33,21.06,9.01,29.39,2.73,3.94,5.91,7.42,9.54,10.45,7.5,6.36,16.89,10.6,27.19,11.82,2.05,.3,4.17,.38,6.21,.38s4.24-.08,6.29-.38c2.65-.3,5.3-.83,7.8-1.51,7.2-2.05,13.79-5.6,19.39-10.3,9.24-7.73,15.75-18.71,17.88-31.13l14.39-16.06c.23,2.42,.38,4.92,.38,7.35,0,20.15-9.01,38.25-23.25,50.37-7.35,6.21-16.06,10.91-25.68,13.48-5.45,1.51-11.21,2.27-17.19,2.27h-.23c-5.91,0-11.51-.83-16.89-2.27-9.62-2.58-18.33-7.27-25.68-13.48h0Z"
    fill="#6667ab"
    >
  </path>
</svg>
